<svg height="496.488pt" viewBox="0 0 496.488 496.488" width="496.488pt" xmlns="http://www.w3.org/2000/svg" xmlns:xlink="http://www.w3.org/1999/xlink"><linearGradient id="linear0" gradientUnits="userSpaceOnUse" x1="248.2456" x2="248.2456" y1="496.484" y2="0"><stop offset="0" stop-color="#9f2fff"/><stop offset="1" stop-color="#0bb1d3"/></linearGradient><path d="m317.265625 107.550781-.371094-1.199219 15.296875-4.695312.367188 1.191406c4.425781 14.34375 12.363281 27.527344 22.960937 38.121094 10.59375 10.605469 23.777344 18.542969 38.121094 22.960938l1.207031.367187-4.71875 15.289063-1.199218-.371094c-16.824219-5.175782-32.289063-14.496094-44.722657-26.933594-12.4375-12.425781-21.75-27.898438-26.941406-44.730469zm40.789063 172.089844 4.855468 15.238281c5.121094-1.632812 10.320313-3.144531 15.617188-4.542968l-4.09375-15.472657c-5.539063 1.472657-11.007813 3.066407-16.378906 4.777344zm36.121093 6.953125c7.289063-1.570312 14.894531-2.953125 22.609375-4.113281 27.640625-4.144531 47.703125-27.441407 47.703125-55.382813 0-11.152344-3.222656-21.898437-9.34375-31.074218l-13.3125 8.863281c4.351563 6.546875 6.65625 14.226562 6.65625 22.210937 0 19.964844-14.328125 36.597656-34.082031 39.566406-8.046875 1.207032-15.992188 2.65625-23.605469 4.296876zm-356.519531 209.894531-37.65625-37.65625 8.945312-62.601562 140.230469-140.230469-13.839843-13.839844 16.007812-48-8.984375-8.984375 3.328125-5.382812c18.097656-29.234375 30.777344-65.480469 36.671875-104.832031 6.511719-43.441407 43.121094-74.960938 87.03125-74.960938 38.882813 0 72.679687 24.96875 84.121094 62.128906l9.632812 31.304688c2.886719 9.375 8.078125 17.992187 15 24.910156 6.933594 6.9375 15.550781 12.128906 24.910157 15.007812l31.296874 9.632813c37.167969 11.421875 62.136719 45.222656 62.136719 84.113281 0 43.207032-32.222656 80.628906-74.953125 87.039063-39.359375 5.902343-75.605468 18.582031-104.832031 36.671875l-5.390625 3.335937-8.984375-8.984375-48 16-13.839844-13.847656-140.222656 140.230469zm74.832031-181.175781-12.6875 12.6875 68.6875 68.6875 12.6875-12.6875zm80 57.375 12.6875-12.6875-68.6875-68.6875-12.6875 12.6875zm-104-33.375-12.6875 12.6875 68.6875 68.6875 12.6875-12.6875zm-24 24-12.6875 12.6875 68.6875 68.6875 12.6875-12.6875zm-24 24-12.6875 12.6875 68.6875 68.6875 12.6875-12.6875zm122.078125-204.550781 151.152344 151.167969c30.328125-17.691407 65.769531-29.664063 105.441406-35.617188 34.960938-5.25 61.328125-35.863281 61.328125-71.214844 0-31.816406-20.433593-59.472656-50.839843-68.824218l-31.296876-9.632813c-11.839843-3.648437-22.75-10.207031-31.519531-18.976563-8.769531-8.761718-15.328125-19.664062-18.984375-31.519531l-9.632812-31.304687c-9.351563-30.40625-37.007813-50.839844-68.824219-50.839844-35.925781 0-65.878906 25.792969-71.207031 61.328125-5.953125 39.671875-17.925782 75.105469-35.617188 105.433594zm1.417969 24.046875-10.34375 31.03125 105.007813 105.007812 31.023437-10.34375zm-3.496094 60.503906-12.6875 12.6875 68.6875 68.6875 12.6875-12.6875zm-143.519531 185.855469 26.34375 26.34375 36.199219-5.167969-57.375-57.375zm173.175781-282.824219-11.3125 11.3125 11.3125 11.3125 11.3125-11.3125zm11.3125 33.945312 11.3125 11.3125 11.308594-11.3125-11.308594-11.3125zm22.632813 22.621094 10.742187 10.746094 11.3125-11.3125-10.746093-10.742188zm0 0" fill="url(#linear0)"/></svg>