<svg height="496pt" viewBox="-13 0 496 496.01036" width="496pt" xmlns="http://www.w3.org/2000/svg" xmlns:xlink="http://www.w3.org/1999/xlink"><linearGradient id="a" gradientUnits="userSpaceOnUse" x1="234.76358" x2="234.76358" y1="496.010357" y2="-.000843"><stop offset="0" stop-color="#9f2fff"/><stop offset="1" stop-color="#0bb1d3"/></linearGradient><path d="m101.523438 120.011719c0 26.46875 21.53125 48 48 48 26.472656 0 48-21.53125 48-48 0-26.472657-21.527344-48-48-48-26.46875 0-48 21.527343-48 48zm80 0c0 17.648437-14.351563 32-32 32-17.644532 0-32-14.351563-32-32 0-17.648438 14.355468-32 32-32 17.648437 0 32 14.351562 32 32zm-109.40625-19.839844c-.847657 3.308594-1.527344 6.695313-1.945313 10.152344-4.167969 1.117187-8.328125 1.6875-12.421875 1.6875h-57.74609375l4.89843775 11.199219c13.816406 31.617187 44.765625 52.160156 79.125 52.742187-19.902344 44.167969-30.503906 92.578125-30.503906 140.875v59.183594c0 42.160156 14.867187 83.214843 41.851562 115.597656l2.398438 2.882813h19.75v-123.265626c0-58.015624 7.570312-115.808593 22.386718-171.878906 1.136719.132813 2.253906.335938 3.40625.429688 14.738282 55.929687 22.207032 113.585937 22.207032 171.449218v123.265626h19.753906l2.398437-2.882813c14.226563-17.070313 24.96875-36.582031 32.058594-57.359375 24.863281 38.046875 67.648437 61.761719 113.789063 61.761719 74.992187 0 136-61.007813 136-136 0-74.992188-61.007813-136-136-136-40.503907 0-78.414063 18.101562-104 48.46875v-152.46875c0-40.730469-30.613282-74.378907-70.03125-79.3125-13.871094-21.5625-36.503907-36.394531-61.511719-39.832031-39.765625-5.480469-77.121094 15.414062-93.078125 51.941406l-4.89843775 11.203125h57.75390575c9.832032 0 19.382813 2.949219 27.550782 8.429687-.113282.152344-.199219.328125-.3125.480469-5.910156 8.082031-10.320313 17.28125-12.878906 27.25zm-46.425782 27.839844h32.066406c4.015626 0 8.054688-.433594 12.101563-1.226563 1.011719 11.90625 4.65625 23.03125 10.3125 32.890625-22.191406-1.664062-42.261719-13.371093-54.480469-31.664062zm75.832032 243.214843v102.296876c-20.703126-28.167969-32-62.417969-32-97.511719v-59.183594c0-46.296875 10.226562-92.699219 29.410156-134.992187 7.457031 6.109374 16.015625 10.886718 25.351562 14.007812-15.054687 57.222656-22.761718 116.191406-22.761718 175.382812zm232-131.214843c66.167968 0 120 53.832031 120 120s-53.832032 120-120 120c-45.804688 0-87.832032-26.53125-107.839844-67.746094 2.441406-11.878906 3.839844-24 3.839844-36.253906v-75.714844c21.425781-37.214844 61.066406-60.285156 104-60.285156zm-120-120v256c0 35.09375-11.292969 69.34375-32 97.511719v-102.296876c0-61.238281-8.167969-122.238281-24.277344-181.320312l-1.609375-5.894531h-6.113281c-35.253907 0-63.941407-28.664063-63.992188-63.914063l.179688-3.375c.652343-12.914062 5.253906-25.320312 13.054687-35.527344.105469-.136718.199219-.273437.304687-.410156.984376-1.269531 2.03125-2.488281 3.117188-3.6875 11.714844-12.910156 28.570312-21.085937 47.335938-21.085937 35.289062 0 64 28.710937 64 64zm-155.773438-72h-32.097656c15.136718-22.832031 41.9375-35.175781 70.144531-31.296875 16.886719 2.328125 32.457031 11.054687 43.785156 23.976562-16.585937 2.070313-31.570312 9.230469-43.410156 19.878906-11.214844-8.113281-24.589844-12.558593-38.421875-12.558593zm211.773438 380.964843v2.035157c0 13.78125 11.21875 25 25 25 12.578124 0 23.234374-9.417969 24.800781-21.898438l4.28125-34.222656c.558593-4.496094 4.398437-7.878906 8.917969-7.878906h2c4.523437 0 8.363281 3.382812 8.921874 7.878906l4.28125 34.222656c1.558594 12.480469 12.214844 21.898438 24.796876 21.898438 13.785156 0 25-11.21875 25-25v-2.035157c0-28.183593 6.664062-56.40625 19.265624-81.605468 3.097657-6.183594 4.734376-13.121094 4.734376-20.058594v-2.453125c0-24.730469-20.117188-44.847656-44.839844-44.847656-8.878906 0-17.488282 2.605469-24.871094 7.527343l-8.0625 5.375c-6.082031 4.046876-14.359375 4.046876-20.441406 0l-8.0625-5.375c-7.394532-4.921874-15.992188-7.527343-24.882813-7.527343-24.71875 0-44.839843 20.117187-44.839843 44.839843v2.453126c0 6.9375 1.640624 13.875 4.738281 20.058593 12.597656 25.207031 19.261719 53.429688 19.261719 81.613281zm-8-104.125c0-15.90625 12.9375-28.839843 28.839843-28.839843 5.714844 0 11.242188 1.671875 16 4.839843l8.066407 5.375c11.359374 7.558594 26.832031 7.558594 38.183593 0l8.0625-5.375c4.761719-3.167968 10.289063-4.839843 16-4.839843 15.914063 0 28.847657 12.933593 28.847657 28.839843v2.453126c0 4.464843-1.054688 8.921874-3.046876 12.90625-13.710937 27.414062-20.953124 58.113281-20.953124 88.765624v2.035157c0 4.964843-4.039063 9-9 9-4.519532 0-8.359376-3.386719-8.917969-7.882813l-4.28125-34.222656c-1.558594-12.480469-12.214844-21.894531-24.800781-21.894531h-2c-12.574219 0-23.230469 9.414062-24.796876 21.894531l-4.28125 34.222656c-.558593 4.496094-4.398437 7.882813-8.921874 7.882813-4.957032 0-9-4.035157-9-9v-2.035157c0-30.664062-7.238282-61.351562-20.949219-88.765624-1.992188-3.976563-3.050781-8.441407-3.050781-12.898438zm0 0" fill="url(#a)"/></svg>