<svg id="Layer_5" enable-background="new 0 0 64 64" height="512" viewBox="0 0 64 64" width="512" xmlns="http://www.w3.org/2000/svg" xmlns:xlink="http://www.w3.org/1999/xlink"><linearGradient id="SVGID_1_" gradientUnits="userSpaceOnUse" x1="32" x2="32" y1="63" y2="1"><stop offset="0" stop-color="#9f2fff"/><stop offset="1" stop-color="#0bb1d3"/></linearGradient><path d="m17.489 40.269c-.973 2.098-1.489 4.399-1.489 6.731 0 8.822 7.178 16 16 16s16-7.178 16-16c0-2.331-.514-4.634-1.487-6.732 2.816-1.388 4.487-3.212 4.487-5.268v-4c0-3.156-3.941-5.845-10.384-7.168.382-.67.824-1.309 1.332-1.901 1.968-2.297 3.052-5.227 3.052-8.251 0-6.992-5.688-12.68-12.68-12.68h-.64c-6.992 0-12.68 5.688-12.68 12.68 0 3.024 1.084 5.955 3.052 8.251.508.592.949 1.23 1.331 1.9-6.441 1.323-10.383 4.017-10.383 7.169v4c0 2.056 1.672 3.881 4.489 5.269zm28.511 6.731c0 7.72-6.28 14-14 14s-14-6.28-14-14c0-2.064.46-4.099 1.329-5.95.778.287 1.615.545 2.506.773-.542 1.319-.835 2.735-.835 4.177 0 4.206 2.35 7.982 6.132 9.854l.674.333.508-.555c.961-1.052 2.271-1.632 3.686-1.632s2.725.58 3.687 1.632l.508.555.674-.333c3.781-1.872 6.131-5.648 6.131-9.854 0-1.439-.285-2.86-.826-4.179.888-.228 1.722-.486 2.498-.772.87 1.852 1.328 3.889 1.328 5.951zm-5.826-4.734c.533 1.167.826 2.438.826 3.734 0 3.207-1.671 6.108-4.405 7.728-1.269-1.106-2.905-1.728-4.595-1.728s-3.326.622-4.595 1.728c-2.734-1.62-4.405-4.521-4.405-7.728 0-1.297.288-2.567.821-3.735 2.455.469 5.211.735 8.179.735 2.966 0 5.721-.266 8.174-.734zm-8.174-1.266c-10.019 0-17-3.162-17-6v-.326c3.057 2.61 9.358 4.326 17 4.326s13.943-1.716 17-4.326v.326c0 2.838-6.981 6-17 6zm-11-27.32c0-5.889 4.791-10.68 10.68-10.68h.641c5.888 0 10.679 4.791 10.679 10.68 0 2.547-.913 5.015-2.571 6.95-2.211 2.579-3.429 5.871-3.429 9.269v2.016c-.294.348-2.011 1.085-5 1.085s-4.706-.737-5-1.085v-2.016c0-3.398-1.218-6.689-3.429-9.27-1.658-1.934-2.571-4.402-2.571-6.949zm3.255 12.021c.487 1.336.745 2.755.745 4.198v2.101c0 2.072 3.516 3 7 3s7-.928 7-3v-2.101c0-1.443.258-2.863.745-4.199 5.492 1.053 9.255 3.181 9.255 5.3 0 2.838-6.981 6-17 6s-17-3.162-17-6c0-2.113 3.769-4.247 9.255-5.299zm10.772-4.159 1.778.915c-.314.61-.591 1.244-.825 1.885l-1.879-.685c.262-.719.574-1.43.926-2.115zm-2.707-14.542h-.32v-2h.32c4.786 0 8.68 3.894 8.68 8.68 0 2.07-.742 4.076-2.089 5.648-.341.398-.666.817-.966 1.246l-1.639-1.147c.338-.482.703-.953 1.086-1.4 1.037-1.211 1.608-2.755 1.608-4.347 0-3.683-2.997-6.68-6.68-6.68z" fill="url(#SVGID_1_)"/></svg>