<svg height="496pt" viewBox="0 0 496 496.432" width="496pt" xmlns="http://www.w3.org/2000/svg" xmlns:xlink="http://www.w3.org/1999/xlink"><linearGradient id="linear0" gradientUnits="userSpaceOnUse" x1="248.216" x2="248.216" y1="496.4336" y2="0"><stop offset="0" stop-color="#9f2fff"/><stop offset="1" stop-color="#0bb1d3"/></linearGradient><path d="m133.679688 157.609375 15.265624 4.789063c-1.722656 5.496093-3.570312 10.945312-5.546874 16.355468l-15.03125-5.488281c1.890624-5.1875 3.65625-10.402344 5.3125-15.65625zm106.535156-109.609375v-16h-11.742188c-40.984375 0-76.234375 29.800781-81.984375 69.3125-1.992187 13.679688-4.785156 27.359375-8.296875 40.648438l15.472656 4.085937c3.664063-13.871094 6.574219-28.152344 8.664063-42.429687 4.609375-31.707032 33.054687-55.617188 66.144531-55.617188zm71.128906 54.6875-15.785156 2.625c3.992187 24.015625 15.183594 45.792969 32.371094 62.96875 17.175781 17.183594 38.957031 28.375 62.964843 32.367188l2.625-15.785157c-20.703125-3.4375-39.480469-13.085937-54.28125-27.902343-14.804687-14.800782-24.453125-33.570313-27.894531-54.273438zm113.609375 184.738281 7.261719.671875v66.703125c0 45.808594-26.976563 87.503907-68.726563 106.199219l-3.273437 1.472656-3.269532-1.464844c-41.753906-18.703124-68.730468-60.390624-68.730468-106.199218v-66.703125l7.265625-.671875c21.519531-2 42.390625-9.28125 60.351562-21.058594l4.382813-2.886719 4.386718 2.878907c17.957032 11.785156 38.832032 19.066406 60.351563 21.058593zm-8.738281 15.070313c-19.816406-2.832032-38.957032-9.664063-56-19.992188-17.039063 10.328125-36.183594 17.160156-56 19.992188v52.304687c0 38.304688 21.863281 73.261719 56 90.0625 34.136718-16.800781 56-51.757812 56-90.0625zm-191.40625 98.480468 8.421875 13.597657 11.203125-6.933594-8.425782-13.601563zm-54.425782 33.6875 8.425782 13.601563 13.605468-8.425781-8.421874-13.601563zm27.210938-16.847656 8.421875 13.597656 13.609375-8.421874-8.425781-13.601563zm298.621094-167.511718v17.4375c0 29.890624-11.398438 57.921874-32 79.449218v7.617188c0 63.976562-40.773438 120.550781-101.472656 140.785156l-2.527344.839844-2.527344-.839844c-36.253906-12.089844-65.3125-37.195312-82.910156-69.058594-.488282.296875-.992188.570313-1.472656.863282l-102.847657 63.671874c-5.21875 3.226563-11.210937 4.929688-17.328125 4.929688-18.144531 0-32.914062-14.769531-32.914062-32.910156 0-6.136719 1.671875-12.074219 4.832031-17.242188l80.671875-132.023437c1.632812-2.664063 2.496094-5.726563 2.496094-8.847657 0-9.359374-7.613282-16.976562-16.976563-16.976562-3.117187 0-6.183593.863281-8.855469 2.496094l-132.015624 80.671875c-5.167969 3.160156-11.101563 4.832031-17.160157 4.832031-18.222656 0-32.992187-14.769531-32.992187-32.910156 0-6.121094 1.707031-12.113282 4.929687-17.320313l63.671875-102.847656c23.960938-38.707031 39.441406-81.167969 46-126.226563 8.039063-55.128906 56.902344-96.695312 113.65625-96.695312h17.4375c50.578125 0 91.984375 39.542969 96.328125 91.976562 1.320313 15.984376 8.296875 31.023438 19.632813 42.367188 11.335937 11.335938 26.386718 18.3125 42.367187 19.632812 52.433594 4.34375 91.976563 45.75 91.976563 96.328126zm-48 21.695312h-10.742188c-28.71875 0-55.863281-10.257812-77.257812-29.039062-21.382813 18.78125-48.527344 29.039062-77.253906 29.039062h-10.746094v82.808594c0 56.183594 35.25 105.976562 88 124.726562 52.753906-18.757812 88-68.542968 88-124.726562zm32-21.695312c0-42.183594-33.230469-76.738282-77.292969-80.382813-19.746094-1.632813-38.347656-10.25-52.363281-24.265625s-22.636719-32.617188-24.261719-52.359375c-3.648437-44.066406-38.207031-77.296875-80.386719-77.296875h-17.4375c-48.863281 0-90.921875 35.679688-97.816406 83-6.886719 47.230469-23.121094 91.761719-48.242188 132.335938l-63.671874 102.847656c-1.652344 2.679687-2.527344 5.761718-2.527344 8.90625 0 9.324218 7.585937 16.910156 16.914062 16.910156 3.191406 0 6.238282-.855469 8.894532-2.480469l132.023437-80.679687c5.183594-3.167969 11.128906-4.839844 17.191406-4.839844 18.1875 0 32.976563 14.792969 32.976563 32.976562 0 6.0625-1.671875 12.007813-4.832032 17.191407l-80.6875 132.023437c-1.625 2.65625-2.480468 5.703125-2.480468 8.816406 0 9.40625 7.585937 16.992188 16.914062 16.992188 3.144532 0 6.222656-.871094 8.902344-2.535156l102.839844-63.664063c.929687-.578125 1.890625-1.113281 2.832031-1.664062-7.429687-17.777344-11.488281-37.175781-11.488281-57.328125v-98.808594h26.746094c27.046874 0 52.472656-10.527344 71.597656-29.65625l5.65625-5.65625 5.65625 5.65625c19.128906 19.128906 44.554687 29.65625 71.601562 29.65625h26.742188v65.648438c10.378906-15.914063 16-34.457032 16-53.90625zm-128 69.695312h16c0 17.648438 14.351562 32 32 32v16c-17.648438 0-32 14.351562-32 32h-16c0-17.648438-14.351563-32-32-32v-16c17.648437 0 32-14.351562 32-32zm8 26.480469c-3.558594 5.359375-8.167969 9.96875-13.519532 13.519531 5.359376 3.558594 9.96875 8.167969 13.519532 13.519531 3.5625-5.359375 8.167968-9.96875 13.519531-13.519531-5.351563-3.558594-9.957031-8.167969-13.519531-13.519531zm-276.375-46.511719 8.871094 13.3125 13.3125-8.875-8.871094-13.308594zm26.625-17.753906 8.871094 13.3125 13.3125-8.871094-8.871094-13.3125zm-53.25 35.503906 8.875 13.3125 13.308594-8.871094-8.871094-13.3125zm0 0" fill="url(#linear0)"/></svg>