<svg width="496" height="496" viewBox="0 0 496 496" fill="none" xmlns="http://www.w3.org/2000/svg">
<path d="M461.944 103.904C450.536 103.904 439.944 109.568 433.608 119.072L429.12 125.8C423.944 124.176 419.04 121.704 414.776 118.288C396.744 103.856 374.088 95.912 350.984 95.912C326.648 95.912 303.656 104.408 285.272 119.928C285.272 119.92 285.28 119.92 285.28 119.912C288.88 113.672 290.232 106.576 289.232 99.536C293.624 93.936 296 87.112 296 79.904C296 72.696 293.624 65.872 289.24 60.28C290.24 53.24 288.888 46.144 285.28 39.904C281.672 33.664 276.208 28.944 269.616 26.296C266.96 19.696 262.248 14.232 256 10.624C249.752 7.02397 242.648 5.67997 235.624 6.67197C224.44 -2.10403 207.56 -2.10403 196.376 6.67197C189.36 5.67997 182.248 7.02397 176 10.632C169.76 14.24 165.04 19.704 162.392 26.296C155.792 28.952 150.328 33.664 146.72 39.912C142.72 46.84 141.64 54.8 143.336 62.584C141.024 65.672 139.16 69.16 137.888 72.976C136.64 76.72 136.008 80.616 136.008 84.56V100.856C136.008 101.616 135.832 102.384 135.488 103.064L130.224 113.592C128.776 116.488 128.016 119.728 128.016 122.96C128.016 134.512 137.408 143.904 148.96 143.904H154.672C158.92 152.52 165.904 159.272 174.304 163.408L143.944 189.432L107.248 158.848C110.32 154 112.024 148.408 112.024 142.536C112.024 125.648 98.288 111.904 81.392 111.904C73.216 111.904 65.52 115.088 59.736 120.88L56 124.592L52.288 120.88C46.504 115.096 38.808 111.904 30.632 111.904C13.744 111.904 0 125.64 0 142.536C0 150.712 3.184 158.408 8.976 164.192L56 211.216L72.424 194.792C72.44 194.808 72.456 194.824 72.472 194.84L124.352 240.328C132.248 247.248 143.576 249.632 153.568 246.512C156.312 266.192 162.632 285.432 172.128 302.856L173.944 306.168C174.984 308.072 176.184 309.864 177.296 311.72L183.528 386.544C183.912 391.168 184.856 395.752 186.32 400.168C190.872 413.808 200.256 425.264 212.752 432.4L249.608 453.464L261.928 484.272C264.76 491.344 271.496 495.904 279.104 495.904C288.184 495.904 295.856 489.408 297.352 480.44L303.536 443.32C303.848 441.48 304 439.616 304 437.76C304 426.4 298.36 415.864 288.904 409.56L255.008 386.968L252.816 378.216C254.368 378.896 255.864 379.672 257.44 380.304L360 421.32V446.264C360 455.992 367.912 463.904 377.648 463.904C384.72 463.904 391.08 459.712 393.864 453.208L413.792 406.72C415.264 403.28 416.008 399.648 416.008 395.904C416.008 385.448 410.2 376.056 400.84 371.368L320 330.96V314.6C320 300.92 316.28 287.488 309.24 275.76C299.072 258.824 283.04 246.752 264 241.672V232.496C275.24 233.76 286.024 237.544 295.528 243.88L299.408 246.464C316.528 257.88 336.448 263.912 357.024 263.912C376.136 263.912 395.08 257.6 410.376 246.128C417.744 240.6 422.536 232.232 423.704 223.184C439.088 221.296 453.944 215.448 466.376 206.128C474.904 199.736 480 189.544 480 178.888V177.968C480 174.808 479.416 171.744 478.568 168.744C479.848 167.888 481.144 167.048 482.376 166.128C490.904 159.736 496 149.544 496 138.888V137.968C496 119.184 480.72 103.904 461.944 103.904ZM243.288 152.904C247.208 152.6 251.192 151.616 254.872 149.728L247.936 156.664C246.456 155.32 244.912 154.056 243.288 152.904ZM167.592 133.376L165.768 127.904H148.944C146.216 127.904 144 125.688 144 122.96C144 122.2 144.176 121.432 144.52 120.752L149.784 110.224C151.232 107.328 151.992 104.088 151.992 100.856V84.56C151.992 82.336 152.344 80.136 153.048 78.032C155.872 69.576 163.744 63.904 172.648 63.904H175.016C190.76 63.904 204.416 74.568 208.24 89.848L209.752 95.904H216C220.408 95.904 224 99.496 224 103.904C224 108.312 220.408 111.904 216 111.904V127.904C229.232 127.904 240 117.136 240 103.904C240 92.792 232.408 83.416 222.136 80.704C214.92 61.144 196.256 47.904 175.016 47.904H172.648C168.008 47.904 163.56 48.864 159.416 50.472C159.736 49.592 160.096 48.728 160.568 47.904C162.752 44.12 166.328 41.456 170.632 40.4L175.336 39.24L176.496 34.536C177.552 30.232 180.216 26.656 184 24.472C187.784 22.296 192.216 21.784 196.464 23.008L201.12 24.368L204.472 20.864C210.6 14.464 221.392 14.464 227.52 20.864L230.872 24.368L235.528 23.008C239.784 21.776 244.2 22.296 247.992 24.472C251.776 26.656 254.44 30.232 255.496 34.536L256.656 39.24L261.36 40.4C265.664 41.456 269.24 44.12 271.424 47.904C273.608 51.688 274.128 56.112 272.888 60.368L271.528 65.024L275.032 68.376C278.232 71.44 279.992 75.536 279.992 79.896C279.992 84.256 278.232 88.36 275.032 91.416L271.528 94.768L272.888 99.424C274.128 103.68 273.608 108.104 271.424 111.888C269.24 115.672 265.664 118.336 261.36 119.392L256.656 120.552L255.496 125.256C254.44 129.56 251.776 133.136 247.992 135.32C244.096 137.568 238.272 137.384 234.232 136.216L231.184 146.664C226.144 144.904 220.752 143.896 215.112 143.896C205.824 143.896 196.824 146.648 189.056 151.56C179.176 150.016 170.832 143.096 167.592 133.376ZM272.544 132.048L268.144 136.448C268.656 135.48 269.2 134.544 269.608 133.52C270.632 133.104 271.576 132.56 272.544 132.048ZM56 188.592L20.288 152.88C17.528 150.112 16 146.44 16 142.536C16 134.472 22.56 127.904 30.632 127.904C34.536 127.904 38.208 129.424 40.976 132.192L56 147.216L71.024 132.192C73.792 129.432 77.464 127.904 81.368 127.904C89.432 127.904 96 134.464 96 142.536C96 146.104 94.672 149.44 92.344 152.112C91.576 152.04 90.816 151.912 90.04 151.912H88.432C74.952 151.912 63.992 162.872 63.992 176.352C63.992 177.656 64.208 178.92 64.408 180.184L56 188.592ZM240.992 396.84L280.032 422.872C285.024 426.2 288 431.768 288 437.76C288 438.744 287.92 439.728 287.76 440.704L281.576 477.816C281.2 480.016 277.624 480.4 276.792 478.328L262.392 442.336L220.696 418.504C211.624 413.32 204.808 405 201.504 395.096C200.44 391.896 199.752 388.568 199.48 385.208L195.416 336.448C206.552 349.008 219.504 359.856 233.912 368.512L240.992 396.84ZM295.52 283.992C301.064 293.232 304 303.824 304 314.6V340.848L393.672 385.68C397.576 387.632 400 391.544 400 395.904C400 397.44 399.68 399 399.08 400.408L379.152 446.904C378.536 448.336 376 447.816 376 446.256V410.48L263.392 365.432C231.312 352.6 204.536 328.832 187.992 298.496L186.176 295.184C176.496 277.432 170.472 257.584 168.616 237.432L220.8 198.288L211.2 185.488L153.208 228.976C147.88 232.976 139.896 232.664 134.888 228.28L82.944 182.736C81.072 181.128 79.992 178.792 79.992 176.328C79.992 171.672 83.776 167.888 88.432 167.888H90.04C92.016 167.888 93.928 168.584 95.44 169.84L144.064 210.36L193.72 167.8C199.68 162.72 207.28 159.904 215.12 159.904C233.248 159.904 248 174.656 248 192.784V254.152L258.936 256.88C274.352 260.736 287.344 270.368 295.52 283.992ZM480 138.88C480 144.536 477.304 149.928 472.776 153.32C460.24 162.728 444.696 167.904 429.024 167.904C411.616 167.904 394.76 162.8 380.28 153.144L376.4 150.56C362.024 140.968 345.288 135.904 328 135.904V151.904C342.12 151.904 355.784 156.048 367.528 163.872L371.408 166.456C388.528 177.872 408.448 183.904 429.024 183.904C440.992 183.904 452.896 181.424 463.88 176.76C463.904 177.16 464 177.552 464 177.96V178.88C464 184.536 461.304 189.928 456.776 193.32C444.24 202.728 428.696 207.904 413.024 207.904C395.616 207.904 378.76 202.8 364.28 193.144L360.4 190.56C346.024 180.968 329.288 175.904 312 175.904V191.904C326.12 191.904 339.784 196.048 351.528 203.872L355.408 206.456C370.92 216.8 388.752 222.672 407.264 223.688C406.2 227.48 403.976 230.912 400.768 233.312C388.232 242.72 372.688 247.896 357.016 247.896C339.608 247.896 322.752 242.792 308.272 233.136L304.392 230.552C292.24 222.448 278.408 217.624 263.984 216.304V192.784C263.984 184.264 261.784 176.248 257.936 169.272L290.08 137.128C306.344 120.864 327.968 111.904 350.976 111.904C370.464 111.904 389.568 118.608 404.776 130.776C415.352 139.24 428.648 143.904 442.2 143.904H464V127.904H446.952C450.312 122.896 455.912 119.904 461.944 119.904C471.904 119.904 480 128 480 137.96V138.88Z" fill="#009EE0"/>
</svg>
