<svg width="496" height="496" viewBox="0 0 496 496" fill="none" xmlns="http://www.w3.org/2000/svg">
<path d="M80 56C80 64.6 77.16 73.128 72 80C64.488 90.016 52.528 96 40 96H32V112H40C52.52 112 64.488 117.984 72 128C77.16 134.872 80 143.4 80 152V168H96V152C96 143.4 98.84 134.872 104 128C111.512 117.984 123.472 112 136 112H144V96H136C123.48 96 111.512 90.016 104 80C98.84 73.128 96 64.6 96 56V40H80V56ZM91.2 89.6C95.616 95.488 101.168 100.304 107.376 104C101.168 107.696 95.616 112.512 91.2 118.4C89.992 120.008 89.016 121.76 88 123.48C86.976 121.752 86.008 120 84.8 118.4C80.384 112.512 74.832 107.696 68.624 104C74.832 100.304 80.384 95.488 84.8 89.6C86.008 87.992 86.984 86.24 88 84.52C89.016 86.24 89.992 87.992 91.2 89.6ZM96 16H80V0H96V16ZM96 200H80V184H96V200ZM176 96V112H160V96H176ZM0 96H16V112H0V96ZM416 448C416 439.4 418.84 430.872 424 424C431.512 413.984 443.472 408 456 408H464V392H456C443.48 392 431.512 386.016 424 375.992C418.84 369.128 416 360.6 416 352V336H400V352C400 360.6 397.16 369.128 392 376C384.488 386.016 372.528 392 360 392H352V408H360C372.52 408 384.488 413.984 392 424.008C397.16 430.872 400 439.4 400 448V464H416V448ZM404.8 414.408C400.384 408.52 394.824 403.696 388.616 400C394.824 396.304 400.376 391.488 404.792 385.6C406 383.992 406.976 382.24 407.992 380.512C409.016 382.232 409.984 383.984 411.192 385.592C415.608 391.48 421.168 396.304 427.376 400C421.168 403.696 415.616 408.512 411.2 414.4C409.992 416.008 409.016 417.76 408 419.488C406.976 417.76 406.008 416.008 404.8 414.408ZM400 296H416V312H400V296ZM400 480H416V496H400V480ZM480 392H496V408H480V392ZM320 408V392H336V408H320ZM348.528 176H147.472L94.016 265.096L248 427.632L401.984 265.096L348.528 176ZM285.088 272L248 389.432L210.912 272H285.088ZM214.128 256L248 199.552L281.872 256H214.128ZM262.128 192H329.872L296 248.448L262.128 192ZM200 248.448L166.128 192H233.872L200 248.448ZM185.872 256H118.128L152 199.552L185.872 256ZM194.136 272L229.904 385.272L122.6 272H194.136ZM301.864 272H373.4L266.096 385.272L301.864 272ZM310.128 256L344 199.552L377.872 256H310.128ZM392 128H376V112H392V128ZM376 128V144H360V128H376ZM376 144H392V160H376V144ZM392 128H408V144H392V128ZM128 384H112V368H128V384ZM112 384V400H96V384H112ZM112 416V400H128V416H112ZM128 400V384H144V400H128Z" fill="#009EE0"/>
</svg>
