<?xml version="1.0" encoding="utf-8"?>
<!-- Generator: Adobe Illustrator 21.1.0, SVG Export Plug-In . SVG Version: 6.00 Build 0)  -->
<svg version="1.1"
	 id="svg17" xmlns:cc="http://creativecommons.org/ns#" xmlns:dc="http://purl.org/dc/elements/1.1/" xmlns:rdf="http://www.w3.org/1999/02/22-rdf-syntax-ns#" xmlns:svg="http://www.w3.org/2000/svg"
	 xmlns="http://www.w3.org/2000/svg" xmlns:xlink="http://www.w3.org/1999/xlink" x="0px" y="0px" viewBox="0 0 107.3 121.5"
	 style="enable-background:new 0 0 107.3 121.5;" xml:space="preserve">
<style type="text/css">
	.st0{fill:#009EE0;}
	.st1{fill:#67C6CF;}
	.st2{fill:#00AFE1;}
</style>
<path id="path4_1_" class="st0" d="M8.1,2.3c-14,7.3-6.1,25-3.6,56.3c4.2,38.7,4,64.7,14.5,62.8c5.7-0.1,10-4.6,35.1-33.6
	C66.8,73,67,31.4,53.6,12.5C37.6,12.5,22.1-6.4,8.1,2.3L8.1,2.3z"/>
<path id="path4" class="st1" d="M99.2,2.2c-14-8.7-29.5,10.3-45.6,10.3C40.3,31.4,40.4,73,53.2,87.8c25.1,29.1,29.4,33.5,35.1,33.6
	c10.4,1.9,10.3-24.1,14.5-62.8C105.3,27.3,113.2,9.5,99.2,2.2L99.2,2.2z"/>
<path id="path6" class="st2" d="M53.8,12.5c0,0-49.8-0.5-39.9,23.3c9,21.7,37.1,52.3,39.8,52.5L53.8,12.5z"/>
<path id="path6_1_" class="st2" d="M53.7,88.3c2.7-0.2,30.9-30.8,39.9-52.5c9.9-23.7-39.8-23.3-39.8-23.3L53.7,88.3z"/>
</svg>
