<?xml version="1.0" encoding="utf-8"?>
<!-- Generator: Adobe Illustrator 21.1.0, SVG Export Plug-In . SVG Version: 6.00 Build 0)  -->
<svg version="1.1"
	 id="svg17" xmlns:cc="http://creativecommons.org/ns#" xmlns:dc="http://purl.org/dc/elements/1.1/" xmlns:rdf="http://www.w3.org/1999/02/22-rdf-syntax-ns#" xmlns:svg="http://www.w3.org/2000/svg"
	 xmlns="http://www.w3.org/2000/svg" xmlns:xlink="http://www.w3.org/1999/xlink" x="0px" y="0px" viewBox="0 0 629.6 121.5"
	 style="enable-background:new 0 0 629.6 121.5;" xml:space="preserve">
<style type="text/css">
	.st0{fill:#009EE0;}
	.st1{fill:#67C6CF;}
	.st2{fill:#00AFE1;}
</style>
<g>
	<path id="path4_1_" class="st0" d="M8.1,2.3c-14,7.3-6.1,25-3.6,56.3c4.2,38.7,4,64.7,14.5,62.8c5.7-0.1,10-4.6,35.1-33.6
		C66.8,73,67,31.4,53.6,12.5C37.6,12.5,22.1-6.4,8.1,2.3L8.1,2.3z"/>
	<path id="path4" class="st1" d="M99.2,2.2c-14-8.7-29.5,10.3-45.6,10.3C40.3,31.4,40.4,73,53.2,87.8c25.1,29.1,29.4,33.5,35.1,33.6
		c10.4,1.9,10.3-24.1,14.5-62.8C105.3,27.3,113.2,9.6,99.2,2.2L99.2,2.2z"/>
	<path id="path6" class="st2" d="M53.8,12.5c0,0-49.8-0.5-39.9,23.3c9,21.7,37.1,52.3,39.8,52.5L53.8,12.5z"/>
	<path id="path6_1_" class="st2" d="M53.7,88.3c2.7-0.2,30.9-30.8,39.9-52.5c9.9-23.7-39.8-23.3-39.8-23.3L53.7,88.3z"/>
</g>
<g>
	<path class="st0" d="M144.6,32.7H181c0.5,0,0.7,0.2,0.7,0.6v48.6c0,0.4-0.2,0.6-0.7,0.6h-8.1c-0.5,0-0.7-0.2-0.7-0.6v-40h-18.8v40
		c0,0.4-0.2,0.6-0.7,0.6h-8.1c-0.5,0-0.7-0.2-0.7-0.6V33.2C143.9,32.8,144.1,32.7,144.6,32.7z"/>
	<path class="st0" d="M217.1,82l-2.1-5.3h-16.1L197,82c-0.1,0.2-0.3,0.4-0.6,0.4h-8.7c-0.3,0-0.5-0.1-0.6-0.2
		c-0.1-0.1-0.1-0.3,0-0.6l19.4-50c0.1-0.2,0.3-0.4,0.6-0.4s0.5,0.1,0.6,0.4l19.4,50c0.1,0.2,0.1,0.4,0,0.5s-0.3,0.2-0.5,0.2h-8.8
		C217.4,82.4,217.2,82.2,217.1,82z M207,53.5l-5,14.9h10L207,53.5z"/>
	<path class="st0" d="M249,32.7c0.8,0,1.7,0,2.6,0.1c0.9,0.1,2.3,0.4,4.2,1c1.8,0.6,3.4,1.3,4.8,2.3c1.3,0.9,2.6,2.4,3.7,4.5
		c1.1,2,1.6,4.4,1.6,7.2c0,2-0.3,3.8-0.9,5.4c-0.6,1.6-1.3,2.9-2.2,3.9c-0.9,1-1.9,1.9-3.2,2.6c-1.2,0.7-2.4,1.3-3.4,1.6
		c-1,0.3-2.2,0.6-3.3,0.8c-1.2,0.2-2,0.3-2.5,0.4c-0.5,0-0.9,0-1.3,0h-7.4v19.5c0,0.4-0.2,0.6-0.6,0.6h-8.1c-0.4,0-0.6-0.2-0.6-0.6
		V33.2c0-0.4,0.2-0.6,0.6-0.6H249z M249,53.2c0.6,0,1.1,0,1.7-0.1c0.6-0.1,1.4-0.3,2.3-0.6c1-0.3,1.8-0.9,2.4-1.7
		c0.6-0.8,0.9-1.9,0.9-3.2c0-1-0.2-2-0.7-2.7c-0.5-0.8-1-1.4-1.6-1.7c-0.6-0.4-1.3-0.7-2.1-0.9c-0.8-0.2-1.4-0.3-1.8-0.4
		c-0.5,0-0.9-0.1-1.2-0.1h-7.4v11.4H249z"/>
	<path class="st0" d="M273.6,81.8V33.2c0-0.4,0.2-0.6,0.6-0.6h8.2c0.4,0,0.6,0.2,0.6,0.6v33.2c2.6-3.8,6.5-9.6,11.8-17.4
		c5.3-7.8,8.9-13.2,11-16.2c0-0.1,0.2-0.2,0.6-0.2h8.2c0.5,0,0.7,0.2,0.7,0.6v48.6c0,0.4-0.2,0.6-0.7,0.6h-8.2
		c-0.5,0-0.7-0.2-0.7-0.6V47.9L283,82.1c-0.1,0.2-0.3,0.3-0.5,0.3h-8.3C273.8,82.4,273.6,82.2,273.6,81.8z"/>
	<path class="st0" d="M351.6,33.7V41c0,0.3-0.2,0.5-0.7,0.5h-9.4v40.3c0,0.4-0.2,0.6-0.6,0.6h-8c-0.4,0-0.6-0.2-0.6-0.6V41.5h-9.4
		c-0.5,0-0.7-0.2-0.7-0.5v-7.4c0-0.4,0.2-0.6,0.7-0.6h28.2C351.4,33.1,351.6,33.3,351.6,33.7z"/>
	<path class="st0" d="M390.8,41.7h-23.4v11.5h19.4c0.4,0,0.6,0.2,0.6,0.6v7.7c0,0.4-0.2,0.6-0.6,0.6h-19.4v11.4h23.4
		c0.5,0,0.7,0.2,0.7,0.6v7.8c0,0.4-0.2,0.6-0.7,0.6h-32.2c-0.4,0-0.6-0.2-0.6-0.6V33.2c0-0.4,0.2-0.6,0.6-0.6h32.2
		c0.5,0,0.7,0.2,0.7,0.6v7.9C391.5,41.5,391.3,41.7,390.8,41.7z"/>
	<path class="st0" d="M425.2,33.7V41c0,0.3-0.2,0.5-0.7,0.5H415v40.3c0,0.4-0.2,0.6-0.6,0.6h-8c-0.4,0-0.6-0.2-0.6-0.6V41.5h-9.4
		c-0.5,0-0.7-0.2-0.7-0.5v-7.4c0-0.4,0.2-0.6,0.7-0.6h28.2C424.9,33.1,425.2,33.3,425.2,33.7z"/>
	<path class="st0" d="M454.6,53.7v7.4c0,0.4-0.2,0.6-0.6,0.6h-24.4c-0.5,0-0.7-0.2-0.7-0.6v-7.4c0-0.4,0.2-0.6,0.7-0.6h24.4
		C454.4,53.1,454.6,53.3,454.6,53.7z"/>
	<path class="st0" d="M496.5,82.4h-28.9v6.9c0,0.4-0.2,0.6-0.7,0.6h-7.6c-0.4,0-0.6-0.2-0.6-0.6V74.4c0-0.4,0.2-0.6,0.6-0.6h2.6
		c2-0.2,3-1.5,3-4V49.4c0-5.2,1.5-9.2,4.7-12.2c3.1-3,7.2-4.5,12.3-4.5h17.3c0.4,0,0.6,0.2,0.6,0.6v40.6h5c0.5,0,0.7,0.2,0.7,0.6
		v14.8c0,0.4-0.2,0.6-0.7,0.6h-7.6c-0.4,0-0.6-0.2-0.6-0.6V82.4z M474.4,69.9c0,1.1-0.4,2.4-1.1,4h16.8V41.6h-8
		c-2.4,0-4.3,0.7-5.7,2c-1.4,1.3-2.1,3.3-2.1,5.8V69.9z"/>
	<path class="st0" d="M546.5,41.7h-23.4v11.5h19.4c0.4,0,0.6,0.2,0.6,0.6v7.7c0,0.4-0.2,0.6-0.6,0.6h-19.4v11.4h23.4
		c0.5,0,0.7,0.2,0.7,0.6v7.8c0,0.4-0.2,0.6-0.7,0.6h-32.2c-0.4,0-0.6-0.2-0.6-0.6V33.2c0-0.4,0.2-0.6,0.6-0.6h32.2
		c0.5,0,0.7,0.2,0.7,0.6v7.9C547.2,41.5,547,41.7,546.5,41.7z"/>
	<path class="st0" d="M584.6,32.7h8.1c0.5,0,0.7,0.2,0.7,0.6v48.6c0,0.4-0.2,0.6-0.7,0.6h-8.1c-0.5,0-0.7-0.2-0.7-0.6V62.1H565v19.7
		c0,0.4-0.2,0.6-0.7,0.6h-8.1c-0.5,0-0.7-0.2-0.7-0.6V33.2c0-0.4,0.2-0.6,0.7-0.6h8.1c0.5,0,0.7,0.2,0.7,0.6v19.6h18.8V33.2
		C583.9,32.8,584.1,32.7,584.6,32.7z"/>
	<path class="st0" d="M629.6,33.7V41c0,0.3-0.2,0.5-0.7,0.5h-9.4v40.3c0,0.4-0.2,0.6-0.6,0.6h-8c-0.4,0-0.6-0.2-0.6-0.6V41.5h-9.4
		c-0.5,0-0.7-0.2-0.7-0.5v-7.4c0-0.4,0.2-0.6,0.7-0.6h28.2C629.4,33.1,629.6,33.3,629.6,33.7z"/>
</g>
</svg>
