<svg width="27" height="19" viewBox="0 0 27 19" fill="none" xmlns="http://www.w3.org/2000/svg">
<path d="M0.715739 10.7353C0.0692524 10.4583 0.0692513 9.54175 0.715737 9.26468L4.88486 7.47792C5.41276 7.25167 6 7.6389 6 8.21323L6 11.7868C6 12.3611 5.41276 12.7483 4.88486 12.5221L0.715739 10.7353Z" fill="#009EE0"/>
<path d="M26.2843 9.26468C26.9307 9.54175 26.9307 10.4583 26.2843 10.7353L22.1151 12.5221C21.5872 12.7483 21 12.3611 21 11.7868L21 8.21323C21 7.6389 21.5872 7.25167 22.1151 7.47791L26.2843 9.26468Z" fill="#009EE0"/>
<path d="M6.78147 2.7835C3.07206 6.49402 3.07295 12.5091 6.78351 16.2185C10.4941 19.9279 16.5091 19.9271 20.2185 16.2165C23.9279 12.5059 23.9271 6.49087 20.2165 2.78146C18.4345 0.999986 16.0177 -0.000557471 13.498 -4.15169e-07C10.9786 0.000518494 8.56264 1.00177 6.78147 2.7835ZM17.2334 4.61258C17.2338 4.61299 17.2342 4.6134 17.2346 4.61384L17.2315 4.61384L17.7096 5.09519C18.34 5.7177 18.5994 6.62432 18.3936 7.48603C18.1613 8.35421 17.7914 9.17952 17.298 9.93068C16.852 10.6286 16.3306 11.2753 15.7431 11.8592C15.2098 12.3964 14.6243 12.8791 13.9951 13.3C13.3182 13.7605 12.5808 14.1249 11.8038 14.383C10.8911 14.6789 9.88952 14.4337 9.21666 13.7497L8.653 13.186C8.49559 13.0293 8.49503 12.7747 8.65174 12.6173C8.65215 12.6169 8.65256 12.6164 8.653 12.616L10.4327 10.8364C10.5894 10.679 10.844 10.6784 11.0014 10.8351C11.0018 10.8355 11.0022 10.8359 11.0027 10.8364L12.0477 11.8814C12.3442 12.1812 12.8155 12.2189 13.156 11.97C13.6747 11.5921 14.1628 11.1738 14.6158 10.7192C15.1249 10.2123 15.588 9.66127 15.9997 9.07253C16.237 8.73235 16.197 8.27115 15.9047 7.97688L14.8787 6.96672C14.7213 6.81001 14.7207 6.55537 14.8774 6.39798C14.8778 6.39758 14.8782 6.39717 14.8787 6.39672L16.6647 4.61388C16.8214 4.45643 17.076 4.45587 17.2334 4.61258Z" fill="#009EE0"/>
</svg>
