<svg width="178" height="105" viewBox="0 0 178 105" fill="none" xmlns="http://www.w3.org/2000/svg">
<path d="M141.262 36.757C138.088 38.5894 135.818 41.5488 134.869 45.0901L134.157 47.7461L131.504 47.0353C130.416 46.7421 129.301 46.6375 128.18 46.619L121.414 34.9L125.409 32.5935C127.612 31.3215 128.369 28.4954 127.097 26.2922L122.484 18.3024C121.212 16.0992 118.386 15.342 116.183 16.614L105.92 22.5392C106.087 19.4096 105.362 16.3231 103.793 13.6046L103.58 13.2371C101.844 10.2289 99.1294 7.82505 95.9415 6.46433C91.2921 4.4773 85.9021 4.80083 81.5257 7.32755C77.1492 9.85426 74.174 14.3604 73.5701 19.3805C73.2074 22.3917 73.12 25.4463 73.2728 28.4741C72.3151 28.7713 71.3728 29.1688 70.468 29.6913C69.5632 30.2137 68.7477 30.8309 68.0083 31.5108C65.4637 29.8666 62.7755 28.4118 59.9864 27.2204C55.3381 25.2354 49.948 25.5589 45.5716 28.0856C41.1952 30.6123 38.22 35.1185 37.615 40.1365C37.2006 43.5797 37.9253 47.1322 39.6621 50.1403L39.8743 50.5078C41.4438 53.2264 43.7545 55.3972 46.5481 56.8177L36.2852 62.743C34.082 64.015 33.3248 66.8412 34.5968 69.0443L39.2097 77.0341C40.4817 79.2373 43.3078 79.9946 45.511 78.7226L49.5059 76.4161L79.4898 128.35L151.398 86.8336L148.269 81.4145L154.801 83.5024L161.693 51.8335C162.419 48.4874 161.876 45.0139 160.165 42.0517L160.009 41.7801C156.225 35.2265 147.816 32.9732 141.262 36.757ZM123.102 28.5986L100.064 41.8999C97.2645 39.713 94.1754 37.9144 90.8868 36.5453L118.489 20.6089L123.102 28.5986ZM61.2772 48.3138L52.8291 44.4985C52.4223 44.2966 52.0861 43.982 51.859 43.5885L51.6468 43.221C51.3988 42.7915 51.295 42.2842 51.3543 41.7918C51.5264 40.3555 53.2183 39.3787 54.5545 39.9495C56.7369 40.8787 58.8427 42.012 60.8044 43.3109L64.1085 45.5234C64.2035 45.8494 64.3096 46.1716 64.4281 46.492L61.2761 48.3118L61.2772 48.3138ZM75.4106 45.4805C76.3357 53.4901 78.6971 61.3443 82.3483 68.531L76.702 68.1663L74.5293 72.5633L73.3692 69.9173C70.3244 62.9691 69.6616 55.1462 71.4268 47.7832L75.4117 45.4825L75.4106 45.4805ZM80.2266 46.5936C81.8552 47.8692 83.4289 49.2111 84.9252 50.6402L81.3817 52.6861C80.8922 50.6756 80.5169 48.6418 80.2266 46.5936ZM90.5386 73.6804L88.0476 69.3659C85.8369 65.5368 84.0599 61.4626 82.6955 57.2541L88.2264 54.0608C91.1888 57.3468 93.8298 60.9248 96.0394 64.7519L98.5304 69.0663L100.988 64.0973L121.129 98.9827L105.15 108.208L85.0085 73.3231L90.5386 73.6804ZM98.1621 59.401C93.7658 52.6444 88.1426 46.6734 81.6686 41.8674L85.6535 39.5667C92.9138 41.7215 99.3561 46.2049 103.851 52.316L105.562 54.6436L100.671 54.3275L98.1621 59.401ZM87.3599 32.1018L87.0977 28.1465C86.9539 25.7846 87.0253 23.3944 87.3106 21.0378C87.4848 19.6003 89.1754 18.6215 90.5054 19.1906C90.9614 19.3854 91.3489 19.729 91.5968 20.1584L91.809 20.526C92.0362 20.9195 92.1418 21.3699 92.1188 21.7453L91.191 31.0431L88.039 32.8629C87.8207 32.6001 87.5936 32.3451 87.3599 32.1018ZM78.1488 19.9302C78.5805 16.3466 80.7041 13.1284 83.8321 11.3224C86.9601 9.51649 90.8089 9.2865 94.1295 10.7064C96.4073 11.6764 98.3457 13.3963 99.5855 15.5435L99.7977 15.9111C100.939 17.8885 101.464 20.1397 101.318 22.4187L101.132 25.3035L96.1067 28.205L96.713 22.1237C96.8045 20.7552 96.4878 19.404 95.8028 18.2175L95.5906 17.85C94.8456 16.5596 93.6844 15.5309 92.3131 14.9457C90.3225 14.0949 88.0142 14.2345 86.1386 15.3173C84.263 16.4002 82.989 18.3315 82.7297 20.484C82.4113 23.1154 82.3319 25.7872 82.4942 28.4393L82.5215 28.8417C81.0435 28.2515 79.4717 27.9232 77.8768 27.864C77.7595 25.2205 77.8343 22.5593 78.1488 19.9302ZM83.9403 35.2293L68.528 44.1276C67.4361 40.1745 69.0632 35.8288 72.7744 33.6861C76.4857 31.5435 81.0627 32.3072 83.9403 35.2293ZM48.7449 52.7716C46.6981 51.7588 45.0109 50.1789 43.8692 48.2014L43.657 47.8339C42.4173 45.6866 41.897 43.1479 42.1948 40.6883C42.6265 37.1046 44.7501 33.8865 47.8781 32.0805C51.0061 30.2745 54.8549 30.0446 58.1743 31.4625C60.6084 32.5047 62.9504 33.7705 65.1819 35.1907C64.4358 36.6016 63.9342 38.1269 63.7064 39.7019L63.3598 39.4706C61.155 38.0137 58.8003 36.7445 56.3634 35.7066C54.3696 34.8549 52.0601 34.9925 50.1845 36.0754C48.3089 37.1583 47.0339 39.0876 46.7754 41.2369C46.5966 42.7171 46.9069 44.2371 47.6519 45.5274L47.8641 45.8949C48.5502 47.0834 49.5609 48.0313 50.8608 48.6683L56.3615 51.1519L51.336 54.0534L48.7449 52.7716ZM38.5917 66.7379L66.1944 50.8015C65.7358 54.3341 65.7488 57.9086 66.2431 61.4264L43.2046 74.7277L38.5917 66.7379ZM53.5008 74.1097L67.2153 66.1916C67.7249 68.0892 68.3526 69.956 69.1454 71.7674L74.2764 83.4822L79.4743 72.9681L101.153 110.516L81.1782 122.048L53.5008 74.1097ZM125.122 96.6774L103.444 59.1294L115.147 59.8829L107.567 49.5819C106.396 47.9916 105.092 46.5127 103.703 45.1225L117.418 37.2044L145.095 85.1431L125.121 96.6754L125.122 96.6774ZM156.171 44.3582C157.306 46.3257 157.666 48.6322 157.183 50.8498L151.373 77.564L144.841 75.4761L131.117 51.7065L137.419 53.3949L139.326 46.2827C139.954 43.9335 141.461 41.9685 143.569 40.7519C147.919 38.2401 153.502 39.7361 156.014 44.0865L156.171 44.3582ZM78.2344 -2.98596L83.1956 -21.5076C83.8079 -23.7867 83.4958 -26.1632 82.3149 -28.2086C79.8816 -32.4232 74.4708 -33.8747 70.2522 -31.4391C68.2108 -30.2605 66.7502 -28.3573 66.1378 -26.0782L65.7473 -24.6143L64.2822 -25.0069C62.0043 -25.6172 59.6257 -25.304 57.5844 -24.1254C53.3658 -21.6898 51.9174 -16.2781 54.3507 -12.0634C55.5304 -10.0201 57.4337 -8.5595 59.7136 -7.95029L78.2344 -2.98596ZM59.8908 -20.1305C60.8656 -20.6933 62.0035 -20.8442 63.0905 -20.553L69.0086 -18.9655L70.5929 -24.8845C70.8861 -25.9726 71.5839 -26.8815 72.5586 -27.4442C74.574 -28.6078 77.1576 -27.9156 78.32 -25.9022C78.8747 -24.9414 79.0284 -23.7757 78.7425 -22.7025L74.9731 -8.63474L60.9053 -12.4042C59.8329 -12.6932 58.9014 -13.4071 58.3456 -14.3699C57.1831 -16.3833 57.8754 -18.9669 59.8908 -20.1305ZM122.695 -8.45186C121.029 -7.49007 119.837 -5.93878 119.341 -4.08103L118.773 -1.96378L116.656 -2.5311C114.799 -3.03034 112.86 -2.77338 111.194 -1.81159C107.756 0.173114 106.574 4.58405 108.559 8.02166C109.507 9.66356 111.099 10.8855 112.93 11.376L128.954 15.6697L133.248 -0.35464C133.738 -2.18518 133.476 -4.17515 132.528 -5.81705C130.544 -9.25466 126.133 -10.4366 122.695 -8.45186ZM128.793 -1.54837L125.693 10.0209L114.124 6.92092C113.467 6.74333 112.894 6.30445 112.554 5.71521C111.841 4.48078 112.266 2.89599 113.5 2.1833C114.099 1.83734 114.795 1.74498 115.462 1.92395L122.035 3.685L123.796 -2.88731C123.975 -3.55525 124.402 -4.111 125.002 -4.45697C126.236 -5.16966 127.821 -4.74503 128.533 -3.5106C128.874 -2.92136 128.967 -2.20571 128.793 -1.54837Z" fill="white"/>
</svg>
