<svg width="496" height="496" viewBox="0 0 496 496" fill="none" xmlns="http://www.w3.org/2000/svg">
<path d="M360 144C322.56 144 288.616 159.208 264 183.768V106.408C264 97.904 261.36 89.76 256.352 82.888L203.232 9.84C198.752 3.68 191.52 0 183.896 0C171.704 0 161.728 9.208 160.288 21.024C160.224 21 160.176 20.968 160.112 20.952L101.504 1.408C98.712 0.472 95.8 0 92.848 0H91.392C76.288 0 64 12.288 64 27.4C64 38.216 70.384 48.04 80.264 52.432L132.272 75.552C136.44 77.392 139.968 80.376 142.488 84.16L163.968 116.376C166.608 120.328 168 124.928 168 129.688V149.576L157.784 134.248C151.832 125.328 141.88 120 131.16 120H52C29.944 120 12 137.944 12 160C12 160.168 12 160.336 12.008 160.504C5.112 162.28 0 168.552 0 176V256.968C0 262.712 1.272 268.504 3.68 273.736L44.08 361.264C47.448 368.552 51.688 375.424 56.688 381.664L61.768 388.016C71.848 400.616 78.016 416 79.576 432H64V496H240V432H224V426.24C224 415.192 226.16 404.416 230.4 394.232L246.712 355.088C271.096 391.76 312.752 416 360 416C434.992 416 496 354.992 496 280C496 205.008 434.992 144 360 144ZM224 480H80V448H224V480ZM215.632 388.08C210.568 400.224 208 413.072 208 426.24V432H95.656C94.048 412.368 86.6 393.448 74.256 378.024L69.176 371.672C64.984 366.432 61.424 360.672 58.608 354.56L18.208 267.032C16.768 263.896 16 260.416 16 256.968V176C33.648 176 48 190.352 48 208V240C48 247.512 51.584 254.696 57.6 259.192L73.592 271.192C81.168 276.872 90.536 280 100 280C124.256 280 144 260.256 144 236V204C144 179.744 124.256 160 100 160H28C28 146.768 38.768 136 52 136H131.16C136.52 136 141.496 138.664 144.472 143.128L165.304 174.384C167.072 177.032 168 180.104 168 183.264V224H184V183.264V129.688C184 121.76 181.68 114.088 177.28 107.504L155.8 75.288C151.592 68.976 145.696 64.008 138.76 60.928L86.76 37.808C82.656 35.984 80 31.896 80 27.4C80 21.112 85.112 16 91.4 16H92.856C94.08 16 95.304 16.192 96.456 16.576L155.056 36.112C160.08 37.784 164.464 41.128 167.408 45.528L193.344 84.432L203.968 100.368C206.608 104.328 208 108.928 208 113.688V224H224V113.688C224 105.76 221.68 98.088 217.28 91.504L180.752 36.688C180.728 36.648 180.688 36.616 180.656 36.576L177.328 31.584C176.464 30.264 176 28.752 176 27.184V23.896C176 19.544 179.544 16 183.896 16C186.416 16 188.808 17.216 190.296 19.248L243.416 92.288C246.416 96.424 248 101.296 248 106.408V203.024C232.896 224.936 224 251.44 224 280C224 300.472 228.68 319.824 236.808 337.256L215.632 388.08ZM51.752 176H100C115.44 176 128 188.56 128 204V236C128 251.44 115.44 264 100 264C93.976 264 88.016 262.008 83.192 258.4L67.192 246.4C65.192 244.896 64 242.504 64 240V208C64 195.72 59.36 184.496 51.752 176ZM360 400C293.832 400 240 346.168 240 280C240 213.832 293.832 160 360 160C426.168 160 480 213.832 480 280C480 346.168 426.168 400 360 400ZM421.656 237.656L328 331.312L298.344 301.656L309.656 290.344L328 308.688L410.344 226.344L421.656 237.656ZM416.784 347.168L427.128 359.368C408.376 375.248 384.536 384 360 384C302.656 384 256 337.344 256 280C256 255.464 264.752 231.624 280.632 212.872L292.832 223.216C279.4 239.08 272 259.24 272 280C272 328.52 311.48 368 360 368C380.76 368 400.92 360.6 416.784 347.168ZM464 280C464 304.536 455.248 328.376 439.368 347.128L427.168 336.784C440.6 320.92 448 300.76 448 280C448 231.48 408.52 192 360 192C339.24 192 319.08 199.4 303.216 212.832L292.872 200.632C311.624 184.752 335.464 176 360 176C417.344 176 464 222.656 464 280Z" fill="#009EE0"/>
</svg>
