<svg width="496" height="492" viewBox="0 0 496 492" fill="none" xmlns="http://www.w3.org/2000/svg">
<path d="M80.0078 400C86.8711 394.84 95.3984 392 104 392H217.473C228.566 392 239.305 388.754 248.535 382.594L369.367 302.039C378.527 295.93 384 285.703 384 274.688V272.863C384 254.742 369.258 240 351.137 240C344.969 240 338.945 241.727 333.711 245L213.703 320H176C173.496 320 171.105 318.809 169.602 316.809L160 304H200C217.648 304 232 289.648 232 272C232 254.352 217.648 240 200 240H125.199C110.09 240 94.9688 243.566 81.4648 250.328C72.0469 255.023 63.4961 261.184 56.0312 268.648L0 324.688V440H26.6641L80.0078 400ZM16 424V331.312L67.3516 279.961C73.5859 273.727 80.7422 268.566 88.6172 264.641C99.9102 258.984 112.559 256 125.199 256H200C208.824 256 216 263.176 216 272C216 280.824 208.824 288 200 288H141.336L107.199 313.602L116.793 326.398L142.391 307.207L156.801 326.398C161.305 332.414 168.488 336 176 336H218.297L342.191 258.559C344.871 256.879 347.969 256 351.129 256C360.434 256 368 263.566 368 272.863V274.688C368 280.344 365.191 285.594 360.496 288.727L239.656 369.281C233.062 373.68 225.391 376 217.473 376H104C91.9531 376 80.0234 379.977 70.4062 387.199L21.3359 424H16ZM149.039 71.2461C156.113 63.3906 160 53.2461 160 42.6875C160 19.1523 140.848 0 117.312 0H114.496C106.047 0 97.8633 2.48047 90.8242 7.16797L80 14.3828L69.168 7.16797C62.1367 2.48047 53.9453 0 45.4961 0H42.6875C19.1523 0 0 19.1523 0 42.6875C0 53.2461 3.88672 63.3906 10.9609 71.2461L80 147.961L149.039 71.2461ZM16 42.6875C16 27.9766 27.9688 16 42.6875 16H45.5039C50.7852 16 55.9102 17.5508 60.3125 20.4805L80 33.6172L99.6875 20.4805C104.098 17.5508 109.215 16 114.496 16H117.312C132.031 16 144 27.9766 144 42.6875C144 49.2969 141.559 55.6328 137.152 60.543L80 124.039L22.8477 60.543C18.4414 55.6328 16 49.2969 16 42.6875ZM453.312 344H450.496C442.031 344 433.848 346.48 426.816 351.168L416 358.383L405.176 351.176C398.152 346.48 389.961 344 381.496 344H378.68C355.152 344 336 363.152 336 386.688C336 397.246 339.887 407.398 346.961 415.238L416 491.961L485.039 415.238C492.113 407.398 496 397.246 496 386.688C496 363.152 476.848 344 453.312 344V344ZM473.152 404.535L416 468.039L358.848 404.535C354.434 399.633 352 393.289 352 386.688C352 371.969 363.969 360 378.688 360H381.504C386.793 360 391.91 361.543 396.312 364.488L416 377.617L435.695 364.48C440.098 361.543 445.207 360 450.496 360H453.312C468.031 360 480 371.969 480 386.688C480 393.289 477.566 399.633 473.152 404.535V404.535ZM240 432V448H224V432H240ZM224 464H240V480H224V464ZM240 464V448H256V464H240ZM224 448V464H208V448H224ZM48 200H32V184H48V200ZM32 232V216H48V232H32ZM48 216V200H64V216H48ZM32 200V216H16V200H32ZM448 248V264H432V248H448ZM432 280H448V296H432V280ZM448 280V264H464V280H448ZM432 264V280H416V264H432ZM384 0V16H368V0H384ZM368 32H384V48H368V32ZM384 32V16H400V32H384ZM368 16V32H352V16H368ZM112 432H96V416H112V432ZM96 464V448H112V464H96ZM112 448V432H128V448H112ZM96 432V448H80V432H96ZM415.992 64C409.129 69.1602 400.602 72 392 72H278.527C267.434 72 256.695 75.2578 247.465 81.4062L126.633 161.961C117.473 168.07 112 178.297 112 189.312V191.137C112 209.258 126.742 224 144.863 224C151.031 224 157.055 222.273 162.289 219L282.297 144H320C322.504 144 324.895 145.191 326.398 147.199L336 160H296C278.352 160 264 174.352 264 192C264 209.648 278.352 224 296 224H370.801C385.91 224 401.031 220.434 414.543 213.672C423.961 208.969 432.512 202.801 439.969 195.344L496 139.312V24H469.336L415.992 64ZM480 40V132.688L428.648 184.031C422.414 190.266 415.258 195.426 407.383 199.359C396.09 205.016 383.434 208 370.801 208H296C287.176 208 280 200.824 280 192C280 183.176 287.176 176 296 176H354.664L388.801 150.398L379.199 137.602L353.602 156.801L339.199 137.602C334.695 131.594 327.52 128 320 128H277.703L153.809 205.441C151.129 207.113 148.031 208 144.863 208C135.566 208 128 200.434 128 191.137V189.312C128 183.656 130.809 178.414 135.504 175.281L256.344 94.7188C262.938 90.3281 270.609 88 278.527 88H392C404.047 88 415.977 84.0156 425.594 76.8008L474.664 40H480Z" fill="#009EE0"/>
</svg>
