<svg width="587" height="586" viewBox="0 0 587 586" fill="none" xmlns="http://www.w3.org/2000/svg">
<path d="M284.881 200.5L302.921 213.996L318.644 192.815L300.604 179.318L284.881 200.5Z" fill="white" fill-opacity="0.5"/>
<path d="M321.283 186.265L355.517 166.993L318.235 139.938L306.441 175.094L321.283 186.265Z" fill="white" fill-opacity="0.5"/>
<path d="M463.195 206.746C463.964 193.542 465.298 126.702 419.476 105.251C407.335 99.582 395.821 99.8079 385.339 105.86C375.485 111.549 366.419 122.499 358.37 138.313C356.17 142.702 353.185 146.652 349.563 149.967L347.674 151.616L355.811 157.774C357.3 158.882 358.507 160.325 359.335 161.986C360.163 163.647 360.589 165.479 360.578 167.335C360.567 169.191 360.12 171.018 359.273 172.669C358.425 174.32 357.201 175.749 355.7 176.839L326.251 193.448L326.157 194.536C326.034 196.473 325.341 198.331 324.165 199.875L311.093 217.571C310.235 218.69 309.166 219.631 307.946 220.34C307.441 220.618 306.92 220.864 306.385 221.078L305.498 221.59L298.232 254.147C297.531 256.407 296.115 258.377 294.197 259.761L292.225 261.294L294.141 262.963C304.299 271.659 315.459 279.109 327.385 285.156C332.229 287.597 335.989 291.756 337.93 296.822C349.664 326.079 393.351 422.995 463.594 440.265C465.032 440.563 466.529 440.319 467.797 439.579C468.442 439.209 469.024 438.74 469.523 438.189C470.457 437.154 471.111 435.898 471.422 434.54C471.733 433.182 471.691 431.767 471.3 430.429C467.86 420.772 456.797 406.958 444.773 391.877C420.218 361.153 389.684 322.944 411.484 296.644C416.518 290.66 423.493 286.633 431.192 285.266C464.807 279.571 482.63 325.12 497.006 361.967C504.455 381.184 510.696 396.516 517.11 403.899C518.021 404.942 519.2 405.717 520.518 406.142C521.837 406.567 523.246 406.625 524.595 406.311C525.36 406.196 526.096 405.934 526.76 405.537C528.069 404.797 529.043 403.582 529.481 402.143C549.62 332.772 487.532 246.481 468.012 221.718C464.617 217.492 462.901 212.16 463.195 206.746V206.746ZM354.897 250.09C352.45 251.499 349.584 251.998 346.805 251.499C344.026 251 341.512 249.535 339.708 247.363L338.355 245.845L330.194 246.927C329.547 247 328.892 246.942 328.267 246.759C327.642 246.575 327.06 246.269 326.555 245.859C326.065 245.487 325.658 245.017 325.361 244.478C325.065 243.939 324.884 243.344 324.832 242.732C324.707 241.797 324.861 240.847 325.275 240C325.689 239.153 326.345 238.447 327.159 237.972C327.715 237.659 328.331 237.466 328.966 237.405L336.214 236.505L337.996 236.034L338.179 234.418C339.176 232.261 340.828 230.473 342.9 229.311C345.657 227.719 348.934 227.287 352.009 228.111C355.084 228.935 357.706 230.947 359.298 233.704C360.89 236.462 361.321 239.738 360.497 242.813C359.673 245.889 357.661 248.51 354.904 250.102L354.897 250.09ZM421.06 241.206C416.896 250.179 411.194 256.887 404.001 261.04C396.808 265.193 388.148 266.777 378.259 265.835C377.642 265.801 377.038 265.637 376.488 265.355C375.938 265.073 375.453 264.679 375.064 264.198C374.628 263.652 374.313 263.021 374.138 262.345C373.964 261.668 373.934 260.963 374.052 260.275C374.169 259.586 374.431 258.931 374.82 258.351C375.209 257.771 375.717 257.28 376.309 256.91C377.19 256.408 378.201 256.178 379.213 256.251C387.187 257.034 393.762 255.85 399.194 252.714C404.626 249.577 408.939 244.476 412.248 237.179C412.691 236.266 413.395 235.505 414.271 234.993C414.936 234.613 415.683 234.399 416.449 234.369C417.214 234.338 417.976 234.492 418.67 234.818C419.828 235.382 420.732 236.36 421.205 237.559C421.42 238.145 421.518 238.767 421.492 239.391C421.466 240.015 421.317 240.627 421.053 241.193L421.06 241.206ZM428.619 189.954L424.277 195.746L423.902 197.144L424.372 198.926C425.296 201.53 425.271 204.377 424.301 206.965C423.331 209.553 421.48 211.715 419.072 213.071C416.315 214.663 413.038 215.095 409.963 214.271C406.888 213.447 404.266 211.435 402.674 208.678C401.082 205.92 400.651 202.644 401.475 199.569C402.299 196.493 404.311 193.872 407.068 192.28C409.123 191.113 411.468 190.556 413.828 190.676L413.923 188.65L414.758 190.78L415.937 190.887L421.036 184.215C421.406 183.696 421.882 183.259 422.431 182.934C423.389 182.389 424.505 182.191 425.592 182.373C426.679 182.555 427.67 183.105 428.398 183.933C429.127 184.76 429.548 185.813 429.59 186.914C429.633 188.015 429.295 189.097 428.633 189.979L428.619 189.954Z" fill="white" fill-opacity="0.5"/>
<path d="M282.552 207.247L252.173 228.416L288.868 255.99L297.387 218.406L282.552 207.247Z" fill="white" fill-opacity="0.5"/>
<path d="M277.792 200.027C277.872 197.918 278.595 195.885 279.864 194.199L292.903 176.62C293.734 175.486 294.79 174.535 296.005 173.828C296.608 173.476 297.25 173.194 297.917 172.986L298.917 172.671L302.989 160.467L299.715 160.912C292.319 161.756 285.156 164.019 278.616 167.575C263.121 176.521 261.854 191.081 261.386 196.557C261.013 200.623 261.086 204.716 261.603 208.766L262.041 212.142L277.819 201.013L277.792 200.027Z" fill="white" fill-opacity="0.5"/>
<path d="M185.566 304.973L163.469 317.731L172.827 333.94L194.925 321.182L185.566 304.973Z" fill="white" fill-opacity="0.5"/>
<path d="M212.7 269.534L192.264 302.863L199.781 315.883L235.314 308.703L212.7 269.534Z" fill="white" fill-opacity="0.5"/>
<path d="M176.275 131.72C164.293 126.156 152.822 126.456 142.18 132.6C132.142 138.396 123.099 149.217 115.119 164.893C111.6 171.765 106.169 177.473 99.4811 181.329C92.789 185.207 85.1166 187.064 77.3915 186.675C59.887 185.712 45.9207 188.176 35.8821 193.971C25.2523 200.109 19.2695 209.886 18.1583 223.009C13.8655 271.981 67.7016 303.273 84.2708 311.69C89.0628 314.176 92.8084 318.292 94.8315 323.297C103.11 344.121 148.095 448.975 220.422 466.669C221.146 466.868 221.902 466.919 222.646 466.82C223.39 466.72 224.106 466.472 224.752 466.09C225.359 465.733 225.91 465.288 226.387 464.768C227.327 463.733 227.981 462.469 228.281 461.103C228.581 459.737 228.518 458.315 228.099 456.981C224.833 447.37 213.775 433.538 201.893 418.703L201.444 418.125C185.957 398.753 168.417 376.822 162.87 356.802L161.848 353.155L151.404 364.933C150.58 365.855 149.611 366.636 148.535 367.246C147.212 368.025 145.747 368.533 144.226 368.74C142.705 368.947 141.157 368.849 139.674 368.452C138.191 368.054 136.802 367.366 135.588 366.426C134.374 365.486 133.36 364.313 132.604 362.977L115.216 332.862C114.296 331.255 113.766 329.454 113.668 327.606C113.571 325.757 113.908 323.91 114.654 322.216C115.43 320.542 116.585 319.072 118.028 317.923C119.471 316.773 121.162 315.975 122.967 315.593C123.235 315.534 123.509 315.503 123.783 315.5L155.908 314.706L156.485 314.652L157.507 314.062L157.789 313.554C158.609 312.007 159.848 310.723 161.364 309.847L179.84 299.18C181.396 298.298 183.16 297.847 184.949 297.873L186.102 297.881L203.499 269.443L203.988 268.783C204.829 267.844 205.816 267.046 206.911 266.422C208.233 265.634 209.7 265.119 211.224 264.907C212.748 264.695 214.299 264.79 215.786 265.186C217.273 265.583 218.666 266.273 219.882 267.215C221.098 268.158 222.113 269.335 222.868 270.676L240.255 300.792C241.175 302.392 241.708 304.185 241.811 306.028C241.914 307.871 241.584 309.712 240.847 311.404C239.79 313.62 238.098 315.471 235.986 316.723C234.892 317.37 233.699 317.832 232.455 318.089L217.146 321.212L219.793 323.921C234.405 338.904 244.76 365.345 253.89 388.666C260.714 406.175 267.018 422.785 273.889 430.56C274.846 431.594 276.059 432.356 277.406 432.77C278.752 433.183 280.184 433.234 281.556 432.917C282.244 432.763 282.905 432.509 283.518 432.162C284.802 431.439 285.756 430.247 286.179 428.835C306.916 357.74 238.688 265.878 224.793 248.182C221.475 243.994 219.782 238.748 220.025 233.411C220.96 214.806 220.663 152.422 176.275 131.72ZM93.1917 257.336C91.4864 258.321 89.5275 258.778 87.5626 258.649C85.5977 258.52 83.7151 257.812 82.1529 256.613C80.5907 255.414 79.4191 253.779 78.7862 251.914C78.1532 250.05 78.0874 248.039 78.597 246.137C79.1067 244.235 80.1689 242.527 81.6493 241.229C83.1298 239.931 84.962 239.1 86.9142 238.843C88.8665 238.586 90.8511 238.914 92.6171 239.785C94.3832 240.656 95.8513 242.031 96.8358 243.736C98.1561 246.023 98.5139 248.741 97.8304 251.291C97.147 253.842 95.4784 256.016 93.1917 257.336ZM172.789 245.721C167.606 257.139 160.335 265.623 151.195 270.9C142.056 276.177 131.036 278.253 118.593 277.012C117.969 276.959 117.362 276.781 116.809 276.488C116.256 276.195 115.768 275.793 115.375 275.306C114.578 274.347 114.191 273.114 114.296 271.872C114.367 271.107 114.62 270.369 115.035 269.721C115.449 269.073 116.013 268.534 116.678 268.148C117.525 267.659 118.503 267.444 119.477 267.534C130.281 268.555 139.115 266.986 146.468 262.741C153.821 258.495 159.597 251.63 164.078 241.784C164.494 240.889 165.177 240.144 166.034 239.653C166.706 239.262 167.462 239.038 168.239 238.998C169.015 238.958 169.79 239.104 170.499 239.423C171.626 239.968 172.495 240.931 172.923 242.108C173.35 243.284 173.302 244.58 172.789 245.721ZM168.401 213.914C166.696 214.899 164.737 215.355 162.772 215.227C160.807 215.098 158.925 214.389 157.362 213.191C155.8 211.992 154.628 210.357 153.996 208.492C153.363 206.628 153.297 204.617 153.806 202.715C154.316 200.813 155.378 199.105 156.859 197.807C158.339 196.508 160.171 195.678 162.124 195.421C164.076 195.164 166.06 195.492 167.827 196.363C169.593 197.234 171.061 198.609 172.045 200.314C173.365 202.601 173.723 205.318 173.04 207.869C172.356 210.419 170.688 212.594 168.401 213.914Z" fill="white" fill-opacity="0.5"/>
<path d="M141.868 362.638L165.819 335.54L158.281 322.484L119.246 323.457L141.868 362.638Z" fill="white" fill-opacity="0.5"/>
</svg>
